<svg width="979" height="980" viewBox="0 0 979 980" fill="#fdc60c" xmlns="http://www.w3.org/2000/svg">
<path fill-rule="evenodd" clip-rule="evenodd" d="M474.633 1.32454C467.242 3.00754 459.376 6.45654 452.706 10.9395C450.076 12.7075 424.633 37.3705 396.165 65.7465L344.407 117.339L381.66 154.602C402.15 175.097 419.331 191.866 419.841 191.866C420.35 191.866 423.502 190.774 426.846 189.44C446.936 181.421 475.182 182.211 495.849 191.37C510.909 198.044 525.793 210.61 534.934 224.366C545.1 239.666 549.265 252.289 550.112 270.366C550.78 284.604 549.533 293.874 545.283 306.266L542.231 315.167L603.074 376.016C636.538 409.484 664.334 436.866 664.842 436.866C665.351 436.866 668.502 435.774 671.846 434.44C691.936 426.421 720.182 427.211 740.849 436.37C765.521 447.304 784.971 469.875 792.548 496.366C795.111 505.328 796.095 524.668 794.507 534.866C791.449 554.496 783.437 569.855 768.425 584.867C753.688 599.605 738.968 607.48 719.814 610.876C708.186 612.937 687.85 611.737 677.424 608.373C651.257 599.932 632.226 583.501 620.837 559.521C615.077 547.391 613.294 539.828 612.694 524.976C612.075 509.636 613.171 501.647 617.636 488.953L620.596 480.54L559.592 419.536L498.588 358.532L494.006 360.282L489.424 362.031V489.813V617.594L493.674 619.218C513.614 626.834 534.763 647.863 543.298 668.56C548.793 681.885 549.885 687.964 549.821 704.866C549.769 718.717 549.479 721.301 547.087 729.154C535.296 767.874 503.073 793.55 463.728 795.58C437.783 796.919 415.106 788.645 396.205 770.945C376.481 752.473 367.141 730.837 367.246 703.866C367.306 688.656 370.1 676.43 376.415 663.745C385.953 644.585 399.573 631.123 419.045 621.61L427.924 617.272V489.866V362.46L419.045 358.122C376.623 337.396 357.099 290.801 372.028 245.912L375.505 235.457L338.72 198.662C318.488 178.424 301.475 161.866 300.914 161.866C300.353 161.866 235.091 226.778 155.886 306.116C47.765 414.419 11.056 451.778 8.58 456.031C6.766 459.147 4.094 464.997 2.641 469.031C0.318 475.482 0 477.872 0 488.866C0 499.86 0.318 502.25 2.641 508.701C4.094 512.735 6.759 518.585 8.564 521.701C11.065 526.019 64.036 579.575 231.385 746.979C470.657 986.333 455.399 971.769 472.424 977.042C478.464 978.913 482.065 979.348 490.924 979.28C504.101 979.179 514.302 976.297 524.502 969.793C529.301 966.733 586.031 910.562 748.971 747.532C984.34 512.035 971.658 525.298 976.706 509.366C978.502 503.698 978.915 500.082 978.876 490.366C978.834 480.007 978.468 477.363 976.197 471.031C974.75 466.997 972.085 461.147 970.276 458.031C965.513 449.831 529.459 13.7765 521.259 9.01354C507.524 1.03754 489.177 -1.98846 474.633 1.32454Z" fill="#fdc60c"/>
</svg>
