<svg width="100" height="90" viewBox="0 0 100 90" fill="none" xmlns="http://www.w3.org/2000/svg">
<path fill-rule="evenodd" clip-rule="evenodd" d="M2.427 3.28516C3.762 5.07316 11.268 15.0252 19.108 25.4022C26.986 35.8302 33.13 44.8732 32.843 45.6182C32.559 46.3602 25.668 55.8592 17.531 66.7262C9.39401 77.5932 2.377 87.0582 1.937 87.7592C1.303 88.7712 4.095 89.0352 15.446 89.0352H29.754L45.701 67.7852C54.472 56.0982 61.652 45.8481 61.657 45.0081C61.662 44.1691 54.257 33.7072 45.201 21.7592L28.737 0.0371704L14.368 0.0361633L0 0.0351562L2.427 3.28516ZM48.564 8.44516C48.875 9.25616 55.059 17.8211 62.307 27.4771L75.483 45.0352L62.557 62.2852C55.447 71.7732 49.29 80.0982 48.875 80.7852C48.287 81.7582 50.792 82.0352 60.168 82.0352H72.217L85.727 63.9022C93.158 53.9282 99.21 45.2662 99.178 44.6522C99.146 44.0382 92.958 35.4352 85.428 25.5352L71.737 7.53516L59.867 7.25217C49.741 7.01117 48.081 7.18616 48.564 8.44516Z" fill="black"/>
</svg>
