<svg width="1601" height="1867" viewBox="0 0 1601 1867" fill="#ffb400" xmlns="http://www.w3.org/2000/svg">
<path fill-rule="evenodd" clip-rule="evenodd" d="M0.339996 3.25C0.526996 5.037 33.282 382.898 73.129 842.94C112.976 1302.98 145.92 1679.67 146.338 1680.03C146.756 1680.39 293.816 1722.58 473.137 1773.78L799.177 1866.88L1126.46 1773.53C1306.47 1722.19 1453.99 1679.94 1454.29 1679.64C1454.58 1679.35 1487.37 1303.89 1527.14 845.302C1566.91 386.711 1599.73 8.912 1600.07 5.75L1600.7 0H800.348H0L0.339996 3.25ZM1302.14 350.25C1301.83 352.587 1281.32 587.825 1256.58 873C1231.83 1158.17 1211.48 1392.36 1211.34 1393.42C1211.13 1395.08 1183.7 1403.15 1006.6 1453.66C894.123 1485.74 801.416 1511.99 800.583 1511.99C798.98 1512 391.519 1395.25 390.865 1394.6C390.545 1394.28 362.644 1075.97 362.61 1072.24C362.6 1071.24 382.969 1071.04 462.845 1071.24L563.092 1071.5L570.19 1153.26C574.093 1198.23 577.529 1235.26 577.824 1235.56C578.118 1235.85 626.901 1249.8 686.229 1266.55C745.557 1283.3 795.895 1297.69 798.09 1298.52L802.083 1300.03L912.59 1269.38C973.37 1252.52 1023.43 1238.43 1023.84 1238.07C1024.45 1237.53 1047.6 979.072 1047.6 972.841C1047.6 971.058 1040.21 971 813.598 971C591.427 971 579.595 970.912 579.548 969.25C579.521 968.287 575.796 921.487 571.27 865.25L563.043 763H814.248H1065.45L1066.05 757.75C1067.02 749.143 1083.6 555.287 1083.6 552.536V550.003L700.356 549.751L317.113 549.5L309.456 455.5C305.245 403.8 301.498 358.012 301.13 353.75L300.461 346H801.591H1302.72L1302.14 350.25Z" fill="#ffb400"/>
</svg>
