<svg width="863" height="981" viewBox="0 0 863 981" fill="none" xmlns="http://www.w3.org/2000/svg">
<path fill-rule="evenodd" clip-rule="evenodd" d="M0 1.143C0 3.142 78.159 880.492 78.355 880.688C78.458 880.791 157.604 903.181 254.235 930.444L429.927 980.012L606.656 930.48C703.857 903.238 783.484 880.848 783.606 880.724C783.728 880.601 801.201 685.2 822.435 446.5C843.669 207.8 861.32 9.688 861.659 6.25L862.276 0H431.138C108.312 0 0 0.287 0 1.143ZM701.441 184.25C700.968 188.112 692 285.203 692 286.462C692 286.758 599.043 287 485.428 287H278.856L279.459 292.25C280.184 298.568 288 393.722 288 396.236C288 397.916 297.454 398 485.453 398H682.906L682.384 402.75C682.097 405.363 675.188 480.317 667.032 569.315C658.876 658.314 652.044 731.258 651.851 731.413C651.658 731.568 603.575 744.867 545 760.967C486.425 777.067 436.756 790.828 434.624 791.546C430.869 792.812 427.306 791.902 320.124 762.306C259.281 745.505 209.153 731.443 208.728 731.058C208.032 730.425 195 572.109 195 564.281V561H248.5H302L302.049 563.75C302.156 569.715 309.636 645.969 310.166 646.499C310.477 646.81 337.55 654.316 370.329 663.179L429.926 679.294L488.713 663.502C521.046 654.817 548.189 647.363 549.031 646.938C550.279 646.307 551.723 634.034 556.867 580.332C560.336 544.125 563.417 512.813 563.715 510.75L564.256 507H376.628C273.433 507 189 506.729 189 506.398C189 505.163 161.058 187.351 160.633 183.75L160.19 180H431.076H701.962L701.441 184.25Z" fill="#ffb400"/>
</svg>
