<svg width="500" height="500" viewBox="0 0 500 500" fill="#ffb400" xmlns="http://www.w3.org/2000/svg">
<path fill-rule="evenodd" clip-rule="evenodd" d="M221.783 0.584034C220.408 1.03203 215.458 1.90603 210.783 2.52603C203.24 3.52603 186.635 7.34703 175.283 10.695C165.889 13.466 147.402 21.213 136.022 27.149C112.102 39.626 93.1951 53.534 73.5261 73.12C49.9551 96.594 32.8241 121.878 19.3081 153.145C18.3571 155.345 17.1861 158.045 16.7051 159.145C15.9371 160.902 10.3861 177.789 7.82914 186.145C6.57614 190.242 2.98014 207.603 1.61614 216.145C0.0841373 225.733 -0.614863 270.848 0.670137 277.145C1.23214 279.895 2.17514 285.52 2.76714 289.645C6.06914 312.647 15.3871 340.596 27.3781 363.467C40.4411 388.382 54.5041 407.291 74.8851 427.343C101.615 453.643 129.508 471.462 164.283 484.455C177.841 489.52 199.023 495.039 211.283 496.699C215.683 497.295 220.91 498.201 222.899 498.714C227.603 499.925 271.963 499.925 276.667 498.714C278.656 498.201 284.108 497.279 288.783 496.663C297.411 495.527 314.997 491.564 322.283 489.114C341.369 482.695 344.545 481.382 361.579 472.875C386.147 460.606 406.217 446.004 426.65 425.533C452.207 399.928 471.818 369.336 484.593 335.145C489.658 321.587 495.177 300.405 496.837 288.145C497.433 283.745 498.339 278.518 498.852 276.529C500.063 271.825 500.063 227.465 498.852 222.761C498.339 220.772 497.417 215.32 496.801 210.645C495.363 199.722 491.432 183.452 487.62 172.645C485.971 167.97 483.886 161.895 482.986 159.145C480.429 151.334 466.882 125.192 459.667 114.145C438.422 81.618 406.223 51.181 373.283 32.488C357.814 23.709 336.502 14.563 321.283 10.171C317.983 9.21903 314.158 8.05603 312.783 7.58703C309.587 6.49603 292.375 2.93003 283.283 1.47503C274.932 0.139034 225.357 -0.578966 221.783 0.584034ZM377.355 93.313C384.248 95.647 390.223 99.144 390.612 101.072C390.813 102.072 386.11 107.625 378.457 115.424C363.494 130.671 358.837 135.815 358.806 137.132C358.793 137.674 364.69 144.037 371.91 151.272C379.129 158.507 384.768 164.861 384.439 165.393C383.383 167.101 372.172 168.893 365.055 168.491C349.56 167.615 334.952 155.682 329.868 139.746C325.509 126.087 333.278 107.311 346.907 98.565C357.388 91.84 367.732 90.056 377.355 93.313ZM398.97 111.107C403.52 117.563 404.896 122.116 405.026 131.145C405.146 139.502 403.887 144.587 400.194 150.658C397.609 154.907 391.019 161.645 389.448 161.645C388.047 161.645 364.783 138.563 364.783 137.173C364.783 136.001 393.88 106.645 395.041 106.645C395.472 106.645 397.24 108.653 398.97 111.107ZM391.144 127.147C390.827 127.973 390.856 129.798 391.208 131.203C391.641 132.929 391.129 135.036 389.626 137.71C388.006 140.593 387.702 141.964 388.506 142.768C389.997 144.259 391.231 143.329 393.161 139.26C395.519 134.292 395.191 125.645 392.645 125.645C392.136 125.645 391.461 126.321 391.144 127.147ZM326.411 153.332C331.539 155.993 331.57 157.097 326.561 158.564C322.856 159.649 315.992 166.1 275.283 206.761C232.54 249.453 228.084 253.615 226.082 252.719C222.47 251.1 208.783 237.536 208.783 235.575C208.783 234.576 209.765 233.071 210.965 232.23C212.165 231.389 219.478 224.478 227.215 216.872C234.952 209.265 245.558 199.24 250.783 194.593C256.008 189.947 260.508 185.892 260.783 185.582C263.748 182.246 292.845 159.645 294.175 159.645C294.531 159.645 296.57 158.542 298.706 157.193C304.611 153.466 313.701 150.633 318.472 151.034C320.776 151.227 324.348 152.261 326.411 153.332ZM341.383 167.045C344.278 169.94 344.783 171.138 344.783 175.111C344.783 177.677 344.36 180.566 343.844 181.531C343.328 182.496 334.678 190.454 324.623 199.215C314.567 207.977 304.077 217.194 301.312 219.699C298.546 222.204 294.446 225.804 292.201 227.699C289.955 229.594 284.33 234.471 279.701 238.537C275.071 242.602 269.933 247.102 268.282 248.537C266.632 249.971 261.917 254.07 257.804 257.645C253.692 261.22 248.742 265.604 246.805 267.386C244.868 269.169 242.806 270.632 242.224 270.636C241.057 270.646 231.783 260.272 231.783 258.958C231.783 257.829 323.794 166.142 326.283 164.791C327.383 164.194 330.466 163.692 333.133 163.675C337.336 163.649 338.437 164.099 341.383 167.045ZM348.783 189.098C348.783 195.059 335.676 217.472 323.901 231.645C308.281 250.447 268.495 290.645 265.506 290.645C264.808 290.645 260.736 287.124 256.457 282.82C247.589 273.899 247.569 274.637 256.885 266.945C263.799 261.237 338.678 195.807 343.283 191.451C347.619 187.349 348.783 186.851 348.783 189.098ZM213.512 247.873C218.061 252.398 221.783 256.615 221.783 257.243C221.783 257.871 219.871 258.642 217.533 258.956C215.195 259.27 208.558 260.687 202.783 262.105C183.291 266.89 179.783 267.225 179.783 264.303C179.783 262.912 202.866 239.645 204.246 239.645C204.794 239.645 208.963 243.348 213.512 247.873ZM233.26 267.622C235.956 270.359 237.965 272.793 237.723 273.03C237.284 273.459 229.677 275.074 220.379 276.71C217.682 277.185 215.049 277.309 214.527 276.987C213.671 276.458 226.449 262.645 227.794 262.645C228.104 262.645 230.564 264.885 233.26 267.622ZM251.304 288.714L260.283 297.783L256.783 300.788C249.193 307.305 201.313 339.645 199.254 339.645C198.973 339.645 196.84 340.85 194.513 342.323C190.074 345.133 186.023 347.345 168.783 356.372C153.759 364.239 152.759 364.892 152.175 367.221C151.885 368.373 152.599 373.247 153.761 378.052C155.961 387.153 155.762 390.645 153.044 390.645C152.161 390.645 145.779 385.028 138.861 378.163L126.283 365.681L165.283 326.639C196.033 295.855 205.023 287.403 207.783 286.68C211.778 285.633 217.625 284.343 226.283 282.598C229.583 281.933 233.633 281.037 235.283 280.607C241.305 279.038 242.145 279.463 251.304 288.714ZM135.517 378.879C141.713 385.057 146.783 390.521 146.783 391.02C146.783 391.557 138.311 391.636 126.033 391.214C110.087 390.667 104.942 390.169 103.81 389.065C102.52 387.806 103.573 386.388 112.291 377.637C117.766 372.141 122.697 367.645 123.249 367.645C123.8 367.645 129.321 372.7 135.517 378.879Z" fill="#ffb400"/>
</svg>
