<svg width="512" height="352" viewBox="0 0 512 352" fill="none" xmlns="http://www.w3.org/2000/svg">
<path fill-rule="evenodd" clip-rule="evenodd" d="M214.317 0.268639C156.374 6.09264 99.0678 30.3066 47.7018 70.6716C16.0968 95.5076 -1.48722 123.213 0.098779 145.672C1.84778 170.428 20.1768 191.858 61.2698 217.193C69.2798 222.131 80.6498 229.253 86.5348 233.02L97.2368 239.867L78.2748 249.52C55.0988 261.317 43.2568 269.325 33.0698 280.086C17.2278 296.822 12.2878 314.137 18.4948 331.172C20.9978 338.041 29.6748 346.75 36.3168 349.058C55.1408 355.602 86.0388 348.632 106.545 333.217C123.381 320.562 133.772 302.908 136.874 281.693C138.56 270.165 136.775 255.823 132.366 245.474C131.773 244.083 133.669 242.76 142.867 238.147C153.203 232.963 154.039 232.702 153.434 234.845C148.626 251.892 147.868 271.519 151.568 283.172C154.798 293.345 159.765 301.655 164.7 305.142C168.157 307.584 170.131 308.181 175.816 308.502C188.33 309.209 193.244 305.168 204.383 285.008L209.553 275.651L210.027 282.911C211.093 299.239 220.071 306.207 232.321 300.214C247.946 292.569 263.555 268.916 282.007 224.922C285.986 215.434 289.508 207.672 289.833 207.672C290.157 207.672 291.45 210.861 292.706 214.758C293.961 218.656 296.749 225.676 298.902 230.358C301.055 235.04 302.817 239.397 302.817 240.04C302.817 240.683 296.931 247.051 289.736 254.19C271.746 272.045 266.817 279.093 266.817 286.966C266.817 292.759 270.272 294.949 280.232 295.472C295.748 296.287 313.544 290.118 324.754 280.038C334.857 270.955 337.467 263.122 335.597 247.489C334.095 234.928 335.325 228.067 341.212 216.172C345.855 206.791 356.28 191.805 357.56 192.672C357.967 192.947 359.472 196.772 360.906 201.172C362.34 205.572 364.98 212.113 366.774 215.708L370.035 222.244L359.649 232.708C348.374 244.068 343.564 251.619 341.703 260.885C339.744 270.641 343.765 278.504 351.824 280.674C354.903 281.503 357.124 281.228 364.403 279.119C377.146 275.426 386.1 270.379 394.455 262.178C404.532 252.286 406.609 244.899 403.28 230.777C402.451 227.26 401.926 224.23 402.113 224.043C402.3 223.856 406.022 222.909 410.385 221.938C422.601 219.218 451.49 219.527 462.317 222.493C478.63 226.961 488.987 234.153 494.352 244.741C496.606 249.189 496.965 251 496.633 256.227C496.161 263.629 493.604 267.55 485.196 273.761C481.034 276.836 479.773 278.352 480.007 279.998C480.435 283.002 486.337 283.43 492.04 280.869C502.756 276.058 510.684 265.201 511.573 254.119C512.549 241.969 507.217 230.045 496.215 219.77C475.426 200.355 444.764 195.158 407.974 204.814C401.563 206.497 395.642 207.941 394.817 208.023C392.82 208.221 387.392 197.096 385.78 189.498C384.182 181.967 385.052 168.564 387.761 158.975C388.88 155.016 389.52 151.062 389.185 150.188C387.446 145.657 376.022 143.714 364.922 146.061C356.626 147.815 354.234 149.449 353.262 154.026C351.858 160.633 348.367 169.554 343.214 179.706C336.549 192.836 321.979 215.263 320.892 214.064C318.99 211.968 316.621 202.583 316.111 195.129C315.656 188.481 316.027 185.226 318.248 176.354C319.726 170.451 320.675 164.801 320.357 163.798C319.022 159.593 307.402 157.58 296.419 159.653C291.307 160.617 289.146 161.596 286.748 164.033C283.072 167.77 277.782 178.614 271.381 195.536C259.017 228.227 244.725 259.027 237.922 267.647L235.968 270.123L235.224 267.156C234.194 263.054 236.775 253.829 242.732 240.323C252.162 218.939 252.891 211.877 246.291 205.829C243.13 202.932 242.067 202.531 238.345 202.828L234.048 203.172L233.598 196.172C233.067 187.903 230.752 182.475 226.444 179.402C223.766 177.492 222.026 177.172 214.317 177.172C206.047 177.172 204.709 177.463 197.817 180.763C189.184 184.897 177.018 194.238 171.561 200.922C169.495 203.453 164.995 207.361 161.561 209.607C156.257 213.076 149.852 216.026 123.217 227.265C120.207 228.535 119.869 228.393 111.606 222.373C106.925 218.962 96.3948 211.578 88.2058 205.963C62.4888 188.33 49.9098 175.844 44.5928 162.672C41.2308 154.345 41.4208 139.501 44.9978 130.893C49.3408 120.445 53.8978 113.772 62.8458 104.761C76.2758 91.2366 93.0958 80.0386 122.317 65.1666C167.71 42.0636 202.593 31.6926 234.957 31.6776C254.257 31.6686 270.629 35.5206 281.284 42.5766C291.328 49.2276 294.569 62.8696 289.284 76.2496C285.324 86.2756 279.049 95.2136 269.608 104.275C255.353 117.956 236.731 128.675 214.328 136.093C196.04 142.148 185.256 144.058 169.317 144.066C156.24 144.072 154.691 143.863 145.817 140.896C140.592 139.149 132.848 135.684 128.609 133.196C120.169 128.243 118.396 127.815 116.959 130.383C114.908 134.048 120.882 144.789 129.199 152.39C139.019 161.365 150.462 165.437 168.473 166.367C194.127 167.691 226.022 159.897 257.317 144.655C280.886 133.177 294.095 123.068 305.77 107.574C320.609 87.8806 327.275 61.9606 321.922 44.7626C318.129 32.5736 308.023 21.1806 294.877 14.2726C285.868 9.53864 269.538 4.21864 257.817 2.19964C248.607 0.613639 222.441 -0.548361 214.317 0.268639ZM213.816 201.922C213.814 205.123 209.523 222.418 205.813 234.176C199.892 252.945 185.979 277.672 181.339 277.672C177.499 277.672 176.141 254.203 179.227 241.172C181.835 230.157 188.889 216.663 195.587 209.876C204.101 201.247 213.819 197.007 213.816 201.922ZM377.811 242.481C377.808 243.961 377.309 246.972 376.702 249.172C375.262 254.388 366.217 263.672 362.574 263.672C360.217 263.672 360.082 263.431 360.764 260.422C361.168 258.634 362.309 255.61 363.298 253.701C365.55 249.356 375.778 238.53 376.948 239.253C377.426 239.548 377.814 241.001 377.811 242.481ZM110.949 259.254C112.137 264.741 111.818 275.247 110.286 281.13C105.794 298.375 90.4548 315.059 73.4008 321.249C65.8338 323.996 58.0808 324.377 53.8888 322.209C50.3748 320.392 49.8168 318.97 49.8178 311.84C49.8198 295.736 68.0798 276.23 97.3138 261.105C103.197 258.061 108.53 255.743 109.164 255.953C109.798 256.164 110.601 257.65 110.949 259.254ZM304.494 268.96C300.598 275.608 291.817 283.03 291.817 279.675C291.817 278.387 305.958 263.479 306.585 264.107C306.846 264.368 305.905 266.552 304.494 268.96Z" fill="#ffb400"/>
</svg>
